<?xml version="1.0" encoding="utf-8"?>
<!-- Generator: Adobe Illustrator 21.1.0, SVG Export Plug-In . SVG Version: 6.00 Build 0)  -->
<svg version="1.1" id="圖層_1" xmlns="http://www.w3.org/2000/svg" xmlns:xlink="http://www.w3.org/1999/xlink" x="0px" y="0px"
	 viewBox="0 0 500 500" style="enable-background:new 0 0 500 500;" xml:space="preserve">
<style type="text/css">
	.st0{fill:#427280;}
</style>
<path class="st0" d="M361.2,204.7c-5.9,0-13.9,8-23.6,23.3c-13.6,21.6-28.1,49.9-43.4,85.1c-0.8-1.8-1.6-3.6-2.3-5.3
	c1.4-1.7,2.7-3.9,3.7-6.6c2.1-5.9,9.2-23.6,21-52.9c10.6-26.6,18.6-47.6,23.9-62.9c8.3-24.2,12.4-40.8,12.4-50.2
	c0-8.3-3.5-12.4-10-12.4c-5.9,0-10,4.7-12.1,13.6c-7.1,28.1-14.8,52.6-23,73.6c-12.4,30.4-21.6,53.2-27.8,68.6
	c-1.4-2.4-2.8-4.6-4.1-6.9c-0.8-1.7-1.3-3-1.7-3.7c-9.4-19.7-18.8-35.2-28.2-47c-1.3-2.2-2.5-4.3-3.6-6.3
	c-5.6-10-9.5-15.1-11.8-15.1c-4.7,0-11.2,7.4-20.1,22.2c-18.3,31.3-29.5,49.3-34.3,54.7c-5.3-5.3-9.8-17.1-13.3-35.8
	c-3.8-17.7-5.6-34.9-5.6-50.8c0-5,0.3-17.7,1.2-38.1c0.6-20.1,0.9-33.1,0.9-39c0-15.1-0.9-25.7-2.1-31.6
	c-2.1-8.3-6.2-12.7-12.1-12.7c-4.1,0-7.4,2.1-9.5,6.2c-6.5,11.5-9.5,25.7-9.5,42.8c0,5.9,3.3,9.8,9.8,12.1
	c-1.5,26.6-2.1,44.6-2.1,53.5c0,49.6,9.8,90.7,29.5,122.9c2.4,4.7,5.9,6.8,10.3,6.8c4.1,0,9.2-4.4,15.1-13.6
	c16.7-26.7,29.6-47.2,38.5-62c0.7,0.9,1.4,1.9,2.2,2.8l17.9,29.6c2.7,5.2,5.4,10.7,8.1,16.6c13.6,30.7,22.5,49.1,26.3,55.6
	c-4.7,10.6-9.2,22.8-13.3,36c-5,16.5-7.4,28.4-7.4,35.5c0,11.8,4.4,17.7,13.3,17.7s13.3-4.7,13.3-14.2c-1.5-3-2.1-5.9-2.1-8.9
	c0-1.2,0.6-4.7,2.4-10.3c13.6-46.1,35.8-96.3,66.5-150.1c4.4-7.7,8.3-13.3,11.2-16.8c4.7-4.7,7.4-9.2,7.4-13
	C373,209.1,368.9,204.7,361.2,204.7z"/>
</svg>
